<svg xmlns="http://www.w3.org/2000/svg" width="500" height="500" viewBox="0 0 500 500" version="1.1"><path d="M 228.832 2.080 C 198.207 4.613, 169.735 12.630, 140.500 26.954 C 113.329 40.266, 91.716 56.089, 70.363 78.300 C 22.244 128.354, -3.111 197.684, 1.811 265.750 C 4.379 301.275, 11.579 328.119, 26.954 359.500 C 51.697 410.002, 91.498 449.501, 142.363 474.033 C 162.500 483.744, 185.963 491.554, 203.832 494.491 L 208.164 495.204 207.582 476.852 C 206.273 435.597, 205.815 425.724, 204.431 409 C 200.276 358.783, 192.013 322.268, 178.749 295.500 C 168.019 273.847, 155.226 259.435, 126.173 236.270 C 101.009 216.205, 90.588 205.627, 80.900 190.313 L 78.883 187.126 89.221 182.089 C 102.767 175.490, 120.872 164.655, 139.756 151.847 C 148.147 146.156, 165.697 134.252, 178.756 125.393 C 207.133 106.142, 220.907 97.814, 237.273 90.011 C 259.909 79.219, 277.500 75.623, 293.157 78.587 C 312.489 82.246, 327.890 96.470, 340.968 122.745 C 350.143 141.175, 357.523 162.727, 368.498 203.133 C 383.846 259.634, 390.164 278.993, 400.016 299.709 C 416.500 334.365, 436.364 349.353, 463.549 347.648 C 468.526 347.335, 474.344 346.499, 476.478 345.790 C 480.243 344.538, 480.469 344.191, 484.173 334 C 503.367 281.176, 503.501 220.564, 484.542 166.941 C 479.745 153.371, 468.810 130.765, 461.149 118.574 C 442.289 88.568, 416.980 62.534, 387.500 42.818 C 373.687 33.580, 348.237 20.782, 333.059 15.440 C 299.898 3.771, 264.007 -0.830, 228.832 2.080 M 143.763 176.565 C 140.760 178.195, 138 182.713, 138 186 C 138 191.300, 143.700 197, 149 197 C 154.300 197, 160 191.300, 160 186 C 160 182.612, 157.193 178.151, 154.033 176.517 C 150.385 174.631, 147.302 174.645, 143.763 176.565" stroke="none" fill="#fbfbfb" fill-rule="evenodd"/><path d="M 273.500 78.201 C 263.330 79.419, 251.189 83.377, 237.273 90.011 C 220.907 97.814, 207.133 106.142, 178.756 125.393 C 165.697 134.252, 148.147 146.156, 139.756 151.847 C 120.872 164.655, 102.767 175.490, 89.221 182.089 L 78.883 187.126 80.900 190.313 C 90.588 205.627, 101.009 216.205, 126.173 236.270 C 155.226 259.435, 168.019 273.847, 178.749 295.500 C 192.013 322.268, 200.276 358.783, 204.431 409 C 205.811 425.676, 206.264 435.448, 207.566 476.500 C 207.879 486.400, 208.443 494.781, 208.818 495.125 C 209.193 495.469, 213.550 496.246, 218.500 496.852 C 293.627 506.046, 367.709 481.541, 421.700 429.637 C 443.410 408.767, 459.316 387.209, 472.624 360.619 C 476.721 352.435, 479.914 345.580, 479.720 345.387 C 479.526 345.193, 477.822 345.487, 475.934 346.040 C 474.045 346.594, 468.450 347.310, 463.500 347.631 C 436.414 349.390, 416.494 334.353, 400.016 299.709 C 390.164 278.993, 383.846 259.634, 368.498 203.133 C 357.523 162.727, 350.143 141.175, 340.968 122.745 C 323.790 88.234, 303.205 74.643, 273.500 78.201 M 143.763 176.565 C 140.760 178.195, 138 182.713, 138 186 C 138 191.300, 143.700 197, 149 197 C 154.300 197, 160 191.300, 160 186 C 160 182.612, 157.193 178.151, 154.033 176.517 C 150.385 174.631, 147.302 174.645, 143.763 176.565" stroke="none" fill="#040404" fill-rule="evenodd"/></svg>